<svg width="32" height="32" viewBox="0 0 32 32" fill="none" xmlns="http://www.w3.org/2000/svg">
  <!-- Фон с градиентом -->
  <rect width="32" height="32" rx="6" fill="url(#gradient)"/>
  
  <!-- Буква S стилизованная под дом -->
  <path d="M16 8L10 12V14H12V20C12 21.1 12.9 22 14 22H18C19.1 22 20 21.1 20 20V14H22V12L16 8Z" fill="white" opacity="0.3"/>
  
  <!-- Основная буква S -->
  <path d="M19.5 13.5C19.5 12.1193 18.3807 11 17 11H15C13.6193 11 12.5 12.1193 12.5 13.5C12.5 14.8807 13.6193 16 15 16H17C18.3807 16 19.5 17.1193 19.5 18.5C19.5 19.8807 18.3807 21 17 21H15C13.6193 21 12.5 19.8807 12.5 18.5" 
        stroke="white" 
        stroke-width="2" 
        stroke-linecap="round"/>
  
  <defs>
    <linearGradient id="gradient" x1="0" y1="0" x2="32" y2="32" gradientUnits="userSpaceOnUse">
      <stop offset="0%" stop-color="#B55F43"/>
      <stop offset="100%" stop-color="#AA4B2C"/>
    </linearGradient>
  </defs>
</svg>

